<?xml version="1.0" encoding="UTF-8"?>
<svg id="_レイヤー_1" data-name="レイヤー 1" xmlns="http://www.w3.org/2000/svg" version="1.1" viewBox="0 0 314 323">
  <defs>
    <style>
      .cls-1 {
        fill: #231815;
      }

      .cls-1, .cls-2 {
        stroke-width: 0px;
      }

      .cls-2 {
        fill: #fff;
      }
    </style>
  </defs>
  <g id="_レイヤー_2" data-name=" レイヤー 2">
    <circle class="cls-2" cx="160.8" cy="162.4" r="141"/>
  </g>
  <g id="_レイヤー_1-2" data-name=" レイヤー 1">
    <circle class="cls-2" cx="161.5" cy="162.5" r="141.1"/>
    <path class="cls-1" d="M161.3,19.5C82.3,19.5,18,83.8,18,162.9s64.3,143.4,143.4,143.4,143.4-64.3,143.4-143.4S240.4,19.5,161.3,19.5ZM161.3,302.2c-76.8,0-139.4-62.5-139.4-139.4S84.5,23.5,161.3,23.5s139.4,62.5,139.4,139.4-62.5,139.4-139.4,139.4Z"/>
    <g>
      <path class="cls-1" d="M225.8,141.1h-4.9v20.8h4.9c2.9,0,5.5-1.2,7.4-3.1s3.1-4.5,3.1-7.4c0-5.8-4.7-10.4-10.4-10.4h0Z"/>
      <path class="cls-1" d="M161.3,37.9c-69,0-125,56-125,125s56,125,125,125,125-56,125-125-56-125-125-125h0ZM120.5,140.5h-19.1v50.3h-11.9v-50.3h-19.1v-4.8h50.1s0,4.8,0,4.8ZM192.9,190.9h-11.7l-.2-39.3-19.6,39.2h-4c0,.1-19.8-38-19.8-38l.2,38h-8c0,.1,0-55.2,0-55.2h11.7l19.8,38.6,19.8-38.6h11.6v55.3h0ZM243.2,162.2c-3.3,2.8-7.8,4.6-12.9,4.6h-9.5v23.9h-12.3v-55.1h21.7c10,0,18.2,7,18.2,15.6s-2,8.2-5.3,11Z"/>
    </g>
  </g>
</svg>