<?xml version="1.0" encoding="UTF-8"?>
<svg id="_レイヤー_1" data-name="レイヤー 1" xmlns="http://www.w3.org/2000/svg" version="1.1" viewBox="0 0 78.9 32.3">
  <defs>
    <style>
      .cls-1 {
        fill: #fff;
        stroke-width: 0px;
      }
    </style>
  </defs>
  <path class="cls-1" d="M12.1,23.7c.3-1.3.3-2.6.3-4.1v-1.7l-3-5.7c-.4-.8-.8-1.3-1.1-1.6-.2-.2-.4-.2-.7-.2h-.3l.4-.9c.5,0,1.1,0,1.6,0s1.3,0,1.7,0c0,.6.2,1,.7,2.1l2.4,4.6,2-4.1c.4-.8.6-1.7.4-2.6.4,0,.9,0,1.3,0s1.1,0,1.6,0v.2c-.4.4-1.2,1.8-1.8,2.9l-2.9,5.4v1.5c0,2.5.1,3.6.4,4.3-.3,0-.9,0-1.5,0s-1.2,0-1.6,0Z"/>
  <path class="cls-1" d="M31.7,24.1c-3.1,0-5.9-1.1-5.9-5v-5.9c0-1,0-1.7-.1-2.1-.1-.4-.4-.6-1-.6h-.2l.4-.9c.5,0,1.2,0,1.8,0s1.4,0,1.8,0c-.1,1.3-.2,2.6-.2,3.8v4.2c0,1.9,0,2.5.3,3.2.5,1.2,1.7,1.9,3.4,1.9s2.9-.6,3.6-1.9c.3-.7.4-2.2.4-3.6v-4c0-1.6-.1-2.7-.4-3.6.3,0,.7,0,1.1,0s1,0,1.5,0c-.2,1.4-.3,2-.3,3.9v5.4c0,3.2-2.1,5.4-6.1,5.4Z"/>
  <path class="cls-1" d="M57.4,23.7c-1.1,0-2.4,0-3.5.1-.4-.6-.8-1.3-1.3-2-1.1-1.7-2.3-3.3-3.5-4.9l-.9,1v2.2c0,1.4,0,2.6.4,3.7-.3,0-.9,0-1.5,0s-1.2,0-1.6,0c.1-1.1.3-1.2.3-4.1v-6.5c0-1,0-1.7-.1-2.1-.1-.4-.4-.6-1-.6h-.2l.4-.9c.5,0,1.1,0,1.7,0s1.4,0,1.8,0c-.1,1.5-.2,2.8-.2,4.1v2.5c3.8-4,4.3-4.7,4.7-5.3.2-.4.3-.7.4-1.2.4,0,.9,0,1.4,0s1.4,0,1.9,0v.2c-1,.8-2.1,1.6-5.8,5.6,1.6,2.2,2.3,3.1,3,4.1,1.1,1.5,2,3,3.6,4.1v.2Z"/>
  <path class="cls-1" d="M63.7,13.2c0-1,0-1.7-.1-2.1-.1-.4-.4-.6-1-.6h-.2l.4-.9c.4,0,1.2,0,1.7,0s1.4,0,1.8,0c-.1,1.2-.2,2.2-.2,3.8v6.6c0,1.9.1,3,.4,3.9-.4,0-1.1,0-1.6,0s-1.1,0-1.5,0c.2-1.1.3-2.5.3-3.9v-6.7Z"/>
</svg>